/* XPM */
static char *_53d9a1be2924a0dda22e6815f785e21[] = {
/* columns rows colors chars-per-pixel */
"16 16 53 1 ",
"  c #D80027",
". c #D9072D",
"X c #DD3250",
"o c #DF415D",
"O c #0052B3",
"+ c #0053B3",
"@ c #0052B4",
"# c #0153B4",
"$ c #0253B4",
"% c #0354B5",
"& c #0454B5",
"* c #0555B5",
"= c #0756B6",
"- c #0958B6",
"; c #0D5BB7",
": c #145FB9",
"> c #1862BA",
", c #1A63BB",
"< c #2067BC",
"1 c #256ABD",
"2 c #266BBD",
"3 c #2B6FBF",
"4 c #2D70BF",
"5 c #3172C0",
"6 c #457FC5",
"7 c #D3738D",
"8 c #DD7D92",
"9 c #E4788C",
"0 c #4881C6",
"q c #4F86C8",
"w c #5187C8",
"e c #5D8FCB",
"r c #6192CC",
"t c #6695CD",
"y c #6D9ACF",
"u c #709CD0",
"i c #749ED1",
"p c #7CA4D3",
"a c #E8A1AE",
"s c #82A8D4",
"d c #8BAED7",
"f c #EAB8C1",
"g c #B8CBE2",
"h c #EDD2D7",
"j c #C1D1E4",
"k c #CEDAE8",
"l c #D3DDE9",
"z c #DBE2EB",
"x c #E2E7EC",
"c c #E3E7EC",
"v c #EFEFEF",
"b c #EFEFF0",
"n c None",
/* pixels */
"nnnnnvvc@+nnnnnn",
"nnno....@@@@nnnn",
"nnX     @@@@@@nn",
"no fhhhh@@@<,@nn",
"n. ha804@@@ds+@n",
"v. hc97,@@@=*,%n",
"v. h0k97@65@@jw+",
"c. h4,k9@pt@@:-@",
"@@@@@@@@@@@*u*@@",
"$@@@1@@@@@@@1@@+",
"++@0lg;@@@@@@@@n",
"n@@ybz3@@@@w6@@n",
"nn@@ie@@@@@re@nn",
"nn@@@@@@@@@@@@nn",
"nnnn@@@@@@@@nnnn",
"nnnnn++@@++nnnnn"
};
