/* XPM */
static char *_e2b0961ffbb4cebf406b7db295ccc40[] = {
/* columns rows colors chars-per-pixel */
"32 32 100 2 ",
"   c #D80027",
".  c #DA1639",
"X  c #DB1C3F",
"o  c #DE3E5B",
"O  c #E0526C",
"+  c #E15C73",
"@  c #0051B4",
"#  c #0052B4",
"$  c #0153B4",
"%  c #0053B5",
"&  c #0253B4",
"*  c #0555B5",
"=  c #0656B5",
"-  c #0857B6",
";  c #0A59B7",
":  c #0B59B7",
">  c #0D5BB7",
",  c #0E5BB8",
"<  c #105DB8",
"1  c #145FB9",
"2  c #1660B9",
"3  c #1761BA",
"4  c #1963BA",
"5  c #1C65BB",
"6  c #1D65BB",
"7  c #1F66BC",
"8  c #2067BC",
"9  c #2268BC",
"0  c #2369BD",
"q  c #256ABD",
"w  c #266BBD",
"e  c #286CBE",
"r  c #2A6EBF",
"t  c #2C6FBF",
"y  c #2E70C0",
"u  c #3373C1",
"i  c #3675C1",
"p  c #3877C2",
"a  c #3D7AC3",
"s  c #427DC4",
"d  c #447FC5",
"f  c #E4788B",
"g  c #E57F91",
"h  c #4982C6",
"j  c #4B84C7",
"k  c #4C84C7",
"l  c #4E85C8",
"z  c #5087C8",
"x  c #5187C8",
"c  c #5288C8",
"v  c #5389C9",
"b  c #5489C9",
"n  c #568AC9",
"m  c #5B8ECB",
"M  c #6494CD",
"N  c #6896CE",
"B  c #6A98CF",
"V  c #6B99CF",
"C  c #6D9ACF",
"Z  c #6F9BD0",
"A  c #749ED1",
"S  c #78A1D2",
"D  c #E58798",
"F  c #E68B9C",
"G  c #EAB4BE",
"H  c #86AAD5",
"J  c #8CAED7",
"K  c #8FB0D8",
"L  c #92B2D8",
"P  c #96B5D9",
"I  c #98B6DA",
"U  c #99B7DA",
"Y  c #9EBADC",
"T  c #A2BDDC",
"R  c #A6BFDD",
"E  c #EBBCC5",
"W  c #A8C0DE",
"Q  c #AAC2DF",
"!  c #B6CAE1",
"~  c #B8CBE2",
"^  c #BCCEE3",
"/  c #C0D0E4",
"(  c #C4D3E5",
")  c #C8D5E6",
"_  c #CDD9E7",
"`  c #D3DDE9",
"'  c #DDE4EB",
"]  c #DEE4EC",
"[  c #DFE5EC",
"{  c #E1E6EC",
"}  c #E3E7ED",
"|  c #E5E9ED",
" . c #E6E9ED",
".. c #E7EAEE",
"X. c #EBEDEF",
"o. c #ECEEEF",
"O. c #EEEFF0",
"+. c #EFEFF0",
"@. c gray94",
"#. c None",
/* pixels */
"#.#.#.#.#.#.#.#.#.#.#.#.@.@.@.o.$ # # # #.#.#.#.#.#.#.#.#.#.#.#.",
"#.#.#.#.#.#.#.#.#.@.@.@.@.@.@.@.# # # # # # $ #.#.#.#.#.#.#.#.#.",
"#.#.#.#.#.#.#.+ . . . . . . . . # # # # # # # # # #.#.#.#.#.#.#.",
"#.#.#.#.#.#.o                   # # # # # # # # # # #.#.#.#.#.#.",
"#.#.#.#.#.X                     # # # # # # # # # # # #.#.#.#.#.",
"#.#.#.#.X                       # # # # # # # # # # # # #.#.#.#.",
"#.#.#.o     D G G G G G G G G G # # # # # # # # # # # # # #.#.#.",
"#.#.+       G @.@.@.@.@.@.@.@.@.# # # # # # 4 m z 1 # # # # #.#.",
"#.#..       G @.E O F ~ c b c c # # # # # # p @.+.9 # # # # #.#.",
"#.@..       G @.@.f   g Z @ $ @ # # # # # # u ` ) r # # # # $ #.",
"#.@..       G @.@.@.f   g C @ @ # # # # # # # 5 5 # # # # # # #.",
"#.@..       G @.~ @.@.f   g C @ # # # # # # # # # # , b , # # #.",
"@.@..       G @.c Z O.O.f   g N # # # 4 # # # # # # I +.T # # # ",
"@.@..       G @.c # Z O.@.f   D # # a ^ W 1 # # # - I @.Y , # # ",
"@.@..       G @.b # # Z @.@.f   # # N @.| u # # # # 8 e 9 # # # ",
"X.@..       G @.c # # # V @.@.f # # # L A # # # # # # # # # # # ",
"# # # # # # # # # # # # # # # # # # # # # # # # y 8 # # # # # # ",
"# # # # # # # # # # # # # # # # # # # # # # # 1 / ! < # # # # # ",
"# # # # # # # # # = # # # # # # # # # # # # # # k h # # # # # # ",
"# # # # # # # # # I , # # # # # # # # # # # # # # # # # # # # # ",
"#.# # # # # ; I S +.I L u $ # # # # # # # # # # # # # # # # # #.",
"#.# # # # # # H @.@.@._ # # # # # # # # # # # # # # # # # # # #.",
"#.# # # # # 5 ( @.@.@.} l # # # # # # # # # # q 4 # # # # # # #.",
"#.#.# # # # h J +.@.@.Q M = # # # # # # # # u { ] 8 # # # # #.#.",
"#.#.# # # # # # { W ..p # # # # # # # # # # c | ] s # # # # #.#.",
"#.#.#.# # # # # b # r w # # # # # # # # # # # c l # # # # #.#.#.",
"#.#.#.#.# # # # # # # # # # # # # # # # # # # # # # # # #.#.#.#.",
"#.#.#.#.#.# # # # # # # # # # # # # # # # # # # # # # #.#.#.#.#.",
"#.#.#.#.#.#.# # # # # # # # # # # # # # # # # # # # #.#.#.#.#.#.",
"#.#.#.#.#.#.#.# # # # # # # # # # # # # # # # # # #.#.#.#.#.#.#.",
"#.#.#.#.#.#.#.#.#.$ # # # # # # # # # # # # # #.#.#.#.#.#.#.#.#.",
"#.#.#.#.#.#.#.#.#.#.#.#.# # # # # # # # #.#.#.#.#.#.#.#.#.#.#.#."
};
