/* XPM */
static char *_c87ab91404e488aaa2270d5895d0305[] = {
/* columns rows colors chars-per-pixel */
"64 64 163 2 ",
"   c #D80027",
".  c #D90E32",
"X  c #DA0E32",
"o  c #DC2849",
"O  c #DD2849",
"+  c #DC2C4C",
"@  c #DD3553",
"#  c #DE3755",
"$  c #DD3A58",
"%  c #DE3A59",
"&  c #DE3F5B",
"*  c #DE405C",
"=  c #DE4460",
"-  c #DF4661",
";  c #E0516B",
":  c #E0536C",
">  c #0051B3",
",  c #0053B3",
"<  c #0051B4",
"1  c #0052B4",
"2  c #0053B4",
"3  c #0153B4",
"4  c #0052B5",
"5  c #0253B4",
"6  c #0354B5",
"7  c #0454B5",
"8  c #0656B5",
"9  c #0756B6",
"0  c #0A59B7",
"q  c #0B59B7",
"w  c #0C5AB7",
"e  c #0F5CB8",
"r  c #105DB8",
"t  c #125EB8",
"y  c #1560B9",
"u  c #1660B9",
"i  c #1861BA",
"p  c #1862BA",
"a  c #1A63BB",
"s  c #1C65BB",
"d  c #1E66BC",
"f  c #1F66BC",
"g  c #2067BC",
"h  c #2168BC",
"j  c #2268BC",
"k  c #246ABD",
"l  c #276BBE",
"z  c #286CBE",
"x  c #286DBE",
"c  c #296DBE",
"v  c #2C6FBF",
"b  c #2D70BF",
"n  c #2E70C0",
"m  c #3072C0",
"M  c #3172C0",
"N  c #3273C0",
"B  c #3474C1",
"V  c #3776C2",
"C  c #3877C2",
"Z  c #3A78C3",
"A  c #3C7AC3",
"S  c #3E7BC4",
"D  c #3F7CC4",
"F  c #427DC4",
"G  c #457FC5",
"H  c #E37085",
"J  c #E3778B",
"K  c #E4788B",
"L  c #4C84C7",
"P  c #4D85C7",
"I  c #4E85C8",
"U  c #4F86C8",
"Y  c #5087C8",
"T  c #5187C8",
"R  c #5389C9",
"E  c #568AC9",
"W  c #578BCA",
"Q  c #588CCA",
"!  c #598DCA",
"~  c #5A8DCB",
"^  c #5C8FCB",
"/  c #5F91CC",
"(  c #6091CC",
")  c #6192CC",
"_  c #6393CD",
"`  c #6594CD",
"'  c #6695CD",
"]  c #6B99CF",
"[  c #6C99CF",
"{  c #709CD0",
"}  c #719CD0",
"|  c #739ED1",
" . c #769FD1",
".. c #78A1D2",
"X. c #79A2D2",
"o. c #7FA6D4",
"O. c #E58798",
"+. c #E8A5B1",
"@. c #EAB6BF",
"#. c #82A8D4",
"$. c #83A8D5",
"%. c #84A9D5",
"&. c #86AAD5",
"*. c #87ABD6",
"=. c #88ACD6",
"-. c #8AADD7",
";. c #8CAED7",
":. c #8DAFD7",
">. c #8FB0D8",
",. c #92B2D8",
"<. c #96B5D9",
"1. c #9BB8DB",
"2. c #9DB9DB",
"3. c #9EBADC",
"4. c #9FBBDC",
"5. c #A0BBDC",
"6. c #A1BCDC",
"7. c #A4BEDD",
"8. c #A5BEDD",
"9. c #A6BFDD",
"0. c #A8C1DE",
"q. c #A9C2DE",
"w. c #AAC2DF",
"e. c #B4C8E1",
"r. c #B7CAE2",
"t. c #BACDE3",
"y. c #BFD0E4",
"u. c #C0D0E4",
"i. c #C2D2E4",
"p. c #C4D3E5",
"a. c #C6D4E5",
"s. c #C8D6E6",
"d. c #C9D7E6",
"f. c #CAD7E7",
"g. c #CBD8E7",
"h. c #CCD8E7",
"j. c #CEDAE8",
"k. c #CFDAE8",
"l. c #D1DCE8",
"z. c #D3DDE9",
"x. c #D5DEE9",
"c. c #D7DFEA",
"v. c #D8E1EA",
"b. c #D9E1EA",
"n. c #DBE2EB",
"m. c #DDE4EB",
"M. c #DEE4EC",
"N. c #DFE5EC",
"B. c #EFE5E7",
"V. c #E0E5EC",
"C. c #E1E6EC",
"Z. c #E5E9ED",
"A. c #E7EAEE",
"S. c #E8EAEE",
"D. c #E8EBEE",
"F. c #E9ECEE",
"G. c #EBEDEF",
"H. c #ECEEEF",
"J. c #EDEEEF",
"K. c #EFEFEF",
"L. c #EFEFF0",
"P. c gray94",
"I. c None",
/* pixels */
"I.I.I.I.I.I.I.I.I.I.I.I.I.I.I.I.I.I.I.I.I.I.I.I.I.I.I.P.P.P.P.F.1 1 1 1 > I.I.I.I.I.I.I.I.I.I.I.I.I.I.I.I.I.I.I.I.I.I.I.I.I.I.I.",
"I.I.I.I.I.I.I.I.I.I.I.I.I.I.I.I.I.I.I.I.I.I.I.P.P.P.P.P.P.P.P.P.1 1 1 1 1 1 1 1 , I.I.I.I.I.I.I.I.I.I.I.I.I.I.I.I.I.I.I.I.I.I.I.",
"I.I.I.I.I.I.I.I.I.I.I.I.I.I.I.I.I.I.I.I.K.P.P.P.P.P.P.P.P.P.P.P.1 1 1 1 1 1 1 1 1 1 1 1 I.I.I.I.I.I.I.I.I.I.I.I.I.I.I.I.I.I.I.I.",
"I.I.I.I.I.I.I.I.I.I.I.I.I.I.I.I.I.I.P.P.P.P.P.P.P.P.P.P.P.P.P.P.1 1 1 1 1 1 1 1 1 1 1 1 1 1 I.I.I.I.I.I.I.I.I.I.I.I.I.I.I.I.I.I.",
"I.I.I.I.I.I.I.I.I.I.I.I.I.I.I.: O + + + + + + + + + + + + + + + 1 1 1 1 1 1 1 1 1 1 1 1 1 1 1 1 I.I.I.I.I.I.I.I.I.I.I.I.I.I.I.I.",
"I.I.I.I.I.I.I.I.I.I.I.I.I.I.%                                   1 1 1 1 1 1 1 1 1 1 1 1 1 1 1 1 1 1 I.I.I.I.I.I.I.I.I.I.I.I.I.I.",
"I.I.I.I.I.I.I.I.I.I.I.I.I..                                     1 1 1 1 1 1 1 1 1 1 1 1 1 1 1 1 1 1 1 I.I.I.I.I.I.I.I.I.I.I.I.I.",
"I.I.I.I.I.I.I.I.I.I.I.-                                         1 1 1 1 1 1 1 1 1 1 1 1 1 1 1 1 1 1 1 1 I.I.I.I.I.I.I.I.I.I.I.I.",
"I.I.I.I.I.I.I.I.I.I.*                                           1 1 1 1 1 1 1 1 1 1 1 1 1 1 1 1 1 1 1 1 1 3 I.I.I.I.I.I.I.I.I.I.",
"I.I.I.I.I.I.I.I.I.#                                             1 1 1 1 1 1 1 1 1 1 1 1 1 1 1 1 1 1 1 1 1 1 3 I.I.I.I.I.I.I.I.I.",
"I.I.I.I.I.I.I.I.&                                               1 1 1 1 1 1 1 1 1 1 1 1 1 1 1 1 1 1 1 1 1 1 1 3 I.I.I.I.I.I.I.I.",
"I.I.I.I.I.I.I.-                                                 1 1 1 1 1 1 1 1 1 1 1 1 1 1 1 1 1 1 1 1 1 1 1 1 I.I.I.I.I.I.I.I.",
"I.I.I.I.I.I.I.          @ H H H H H H H H H H H H H H H H H H H 1 1 1 1 1 1 1 1 1 1 1 1 1 1 1 1 1 1 1 1 1 1 1 1 1 I.I.I.I.I.I.I.",
"I.I.I.I.I.I..           H P.P.P.P.P.P.P.P.P.P.P.P.P.P.P.P.P.P.P.1 1 1 1 1 1 1 1 1 1 1 1 1 1 1 > 1 1 1 1 1 1 1 1 1 1 I.I.I.I.I.I.",
"I.I.I.I.I.%             H P.P.P.P.P.P.P.P.P.P.P.P.P.P.P.P.P.P.P.1 1 1 1 1 1 1 1 1 1 1 1 1 1 1 ~ n 1 1 1 1 1 1 1 1 1 1 I.I.I.I.I.",
"I.I.I.I.;               H P.P.P.P.P.P.P.P.P.P.P.P.P.P.P.P.P.P.P.1 1 1 1 1 1 1 1 1 1 1 1 1 [ ~ f.w.` W 1 1 1 1 1 1 1 1 I.I.I.I.I.",
"I.I.I.I.O               H P.P.P.B.+.+.+.@.P.M.9.9.9.9.9.9.9.9.9.1 1 1 1 1 1 1 1 1 1 1 1 1 E P.P.P.P.v 1 1 1 1 1 1 1 1 1 I.I.I.I.",
"I.I.I.I.+               H P.P.P.P.K       O.L._ 1 1 1 1 1 1 1 1 1 1 1 1 1 1 1 1 1 1 1 1 3 #.P.P.P.H.^ 1 1 1 1 1 1 1 1 1 I.I.I.I.",
"I.I.I.P.+               H P.P.P.P.P.K       O.L._ 1 1 1 1 1 1 1 1 1 1 1 1 1 1 1 1 1 1 1 m 4.M.K.P.c.,.a 1 1 1 1 1 1 1 1 1 I.I.I.",
"I.I.I.P.+               H P.P.P.P.P.P.K       O.L._ 1 1 1 1 1 1 1 1 1 1 1 1 1 1 1 1 1 1 1 1 7.k.V...1 1 1 1 1 1 1 1 1 1 1 I.I.I.",
"I.I.P.P.+               H P.P.P.P.P.P.P.K       O.L._ 1 1 1 1 1 1 1 1 1 1 1 1 1 1 1 1 1 1 1 _ e h T 1 1 1 1 1 1 1 1 1 1 1 1 I.I.",
"I.I.P.P.+               H P.P.P.P.P.P.P.P.K       O.L._ 1 1 1 1 1 1 1 1 1 1 1 1 1 1 1 1 1 1 > 1 1 1 1 1 1 1 1 1 1 1 1 1 1 1 I.I.",
"I.I.P.P.+               H P.P.P.M.L.P.P.P.P.K       O.L._ 1 1 1 1 1 1 1 1 1 1 1 1 1 1 1 1 1 1 1 1 1 1 1 1 1 a l 1 1 1 1 1 1 I.I.",
"I.P.P.P.+               H P.P.P.9._ L.P.P.P.P.K       O.L._ 1 1 1 1 1 1 1 1 1 1 1 1 1 1 1 1 1 1 1 1 1 1 n r *.1.w N 1 1 1 1 1 I.",
"I.P.P.P.+               H P.P.P.9.1 _ L.P.P.P.P.K       O.L._ 1 1 1 1 1 1 1 1 1 1 1 1 1 1 1 1 1 1 1 1 1 / L.K.L.K. .1 1 1 1 1 I.",
"I.P.P.P.+               H P.P.P.9.1 1 _ L.P.P.P.P.K       O.L._ 1 1 1 1 1 1 > _ q 1 1 1 1 1 1 1 1 1 1 1 x L.L.P.P.S 1 1 1 1 1 I.",
"I.P.P.P.+               H P.P.P.9.1 1 1 _ L.P.P.P.P.K       O.L.1 1 1 1 8 ` V n...T V 1 1 1 1 1 1 1 1 h c.P.P.P.P.M.m 1 1 1 1 I.",
"P.P.P.P.+               H P.P.P.9.1 1 1 1 _ L.P.P.P.P.K       O.1 1 1 1 1 :.L.L.P.F.p 1 1 1 1 1 1 1 1 1 3 >.P.P.7.8 1 1 1 1 1 > ",
"K.P.P.P.+               H P.P.P.9.1 1 1 1 1 _ L.P.P.P.P.K       1 1 1 1 1 -.L.L.P.n.x 1 1 1 1 1 1 1 1 1 1 ..~ L -.1 1 1 1 1 1 1 ",
"P.P.P.P.+               H P.P.P.9.1 1 1 1 1 1 _ L.P.P.P.P.K     1 1 1 1 T a.L.P.L.M.4.q 1 1 1 1 1 1 1 1 1 9 1 1 8 1 1 1 1 1 1 1 ",
"P.P.P.P.+               H P.P.P.9.1 1 1 1 1 1 1 _ L.P.P.P.P.K   1 1 1 1 1 1 h.n.L.L 1 1 1 1 1 1 1 1 1 1 1 1 1 1 1 1 1 1 1 1 1 > ",
"F.P.P.P.+               H P.P.P.9.1 1 1 1 1 1 1 1 _ L.P.P.P.P.J 1 1 1 1 1 > *.w L L 1 1 1 1 1 1 1 1 1 1 1 1 1 1 1 1 1 1 1 1 1 1 ",
"1 1 1 1 1 1 1 1 1 1 1 1 1 1 1 1 1 1 1 1 1 1 1 1 1 1 1 1 1 1 1 1 1 1 1 1 1 1 1 1 1 1 1 1 1 1 1 1 1 V y 1 1 1 1 1 1 1 1 1 1 1 1 1 ",
"> 1 1 1 1 1 1 1 1 1 1 1 1 1 1 1 1 1 1 1 1 1 1 1 1 1 1 1 1 1 1 1 1 1 1 1 1 1 1 1 1 1 1 1 1 1 1 1 1 *.` 1 1 1 1 1 1 1 1 1 1 1 1 > ",
"1 1 1 1 1 1 1 1 1 1 1 1 1 1 1 1 1 1 1 1 1 1 1 1 1 1 1 1 1 1 1 1 1 1 1 1 1 1 1 1 1 1 1 1 1 1 1 T h.A.A.s.F 1 1 1 1 1 1 1 1 1 1 1 ",
"1 1 1 1 1 1 1 1 1 1 1 1 1 1 1 1 1 1 1 1 1 1 1 1 1 1 1 1 1 1 1 1 1 1 1 1 1 1 1 1 1 1 1 1 1 1 1 1 ~ P.P.Z 1 1 1 1 1 1 1 1 1 1 1 1 ",
"> 1 1 1 1 1 1 1 1 1 1 1 1 1 1 1 1 1 1 1 1 1 1 1 1 1 1 1 1 1 1 1 1 1 1 1 1 1 1 1 1 1 1 1 1 1 1 1 o.-.4._ > 1 1 1 1 1 1 1 1 1 1 > ",
"I.1 1 1 1 1 1 1 1 1 1 1 1 1 1 1 1 1 1 y 1 1 1 1 1 1 1 1 1 1 1 1 1 1 1 1 1 1 1 1 1 1 1 1 1 1 1 1 x > 1 x 1 1 1 1 1 1 1 1 1 1 1 I.",
"I.1 1 1 1 1 1 1 1 1 1 1 1 1 1 1 1 1 l e.> 1 1 1 1 1 1 1 1 1 1 1 1 1 1 1 1 1 1 1 1 1 1 1 1 1 1 1 > 1 1 1 1 1 1 1 1 1 1 1 1 1 1 I.",
"I.1 1 1 1 1 1 1 1 1 1 1 1 1 1 1 1 > <.P.Z 1 1 1 1 1 1 1 1 1 1 1 1 1 1 1 1 1 1 1 1 1 1 1 1 1 1 1 1 1 1 1 1 1 1 1 1 1 1 1 1 1 1 I.",
"I.> 1 1 1 1 1 1 1 1 1 1 1 x { V 8 f F.P.q.3 y U { 1 1 1 1 1 1 1 1 1 1 1 1 1 1 1 1 1 1 1 1 1 1 1 1 1 1 1 1 1 1 1 1 1 1 1 1 1 > I.",
"I.I.1 1 1 1 1 1 1 1 1 1 1 1 h.P.A.c.P.P.P.j.P.P.[ 1 1 1 1 1 1 1 1 1 1 1 1 1 1 1 1 1 1 1 1 1 1 1 1 1 1 1 1 1 1 1 1 1 1 1 1 1 I.I.",
"I.I.1 1 1 1 1 1 1 1 1 1 1 1 ~ P.P.P.P.P.P.P.P.M.q 1 1 1 1 1 1 1 1 1 1 1 1 1 1 1 1 1 1 1 1 1 1 1 1 1 1 1 1 1 1 1 1 1 1 1 1 1 I.I.",
"I.I.1 1 1 1 1 1 1 1 1 1 1 1 8 k.P.P.P.P.P.P.P.{ 1 1 1 1 1 1 1 1 1 1 1 1 1 1 1 1 1 1 1 1 1 1 1 1 1 1 1 1 1 1 1 1 1 1 1 1 1 1 I.I.",
"I.I.I.1 1 1 1 1 1 1 1 1 1 1 W A.P.P.P.P.P.P.P.i.s > > 1 1 1 1 1 1 1 1 1 1 1 1 1 1 1 1 1 1 1 1 y 8 1 1 1 1 1 1 1 1 1 1 1 1 I.I.I.",
"I.I.I.1 1 1 1 1 1 1 1 1 8 =.P.P.P.P.P.P.P.P.P.P.M.D 1 1 1 1 1 1 1 1 1 1 1 1 1 1 1 1 1 1 1 8 1 *.~ > 8 1 1 1 1 1 1 1 1 1 1 I.I.I.",
"I.I.I.I.1 1 1 1 1 1 1 1 T i.K.P.P.P.P.P.P.P.P.P.V.w.p 1 1 1 1 1 1 1 1 1 1 1 1 1 1 1 1 1 1 <.t.A.n.i.{ 1 1 1 1 1 1 1 1 1 I.I.I.I.",
"I.I.I.I.1 1 1 1 1 1 1 1 1 1 q D M.P.P.P.P.P.2.x 1 1 1 1 1 1 1 1 1 1 1 1 1 1 1 1 1 1 1 1 1 C L.P.L.K.r 1 1 1 1 1 1 1 1 1 I.I.I.I.",
"I.I.I.I.I.1 1 1 1 1 1 1 1 1 1 1 z.P.P.P.P.P.{ 1 1 1 1 1 1 1 1 1 1 1 1 1 1 1 1 1 1 1 1 1 x k.P.L.L.P.r.y 1 1 1 1 1 1 1 I.I.I.I.I.",
"I.I.I.I.I.1 1 1 1 1 1 1 1 1 1 1 z.P.-.x f.P.{ 1 1 1 1 1 1 1 1 1 1 1 1 1 1 1 1 1 1 1 1 1 q S y.L.L.9.V 8 1 1 1 1 1 1 1 I.I.I.I.I.",
"I.I.I.I.I.I.1 1 1 1 1 1 1 1 1 1 g.~ 1 1 q 9.{ 1 1 1 1 1 1 1 1 1 1 1 1 1 1 1 1 1 1 1 1 1 1 1 7.#.9...> 1 1 1 1 1 1 1 I.I.I.I.I.I.",
"I.I.I.I.I.I.I.1 1 1 1 1 1 1 1 1 h 1 1 1 > 3 f 1 1 1 1 1 1 1 1 1 1 1 1 1 1 1 1 1 1 1 1 1 1 1 h 1 1 g 1 1 1 1 1 1 1 I.I.I.I.I.I.I.",
"I.I.I.I.I.I.I.I.1 1 1 1 1 1 1 1 1 1 1 1 1 1 1 1 1 1 1 1 1 1 1 1 1 1 1 1 1 1 1 1 1 1 1 1 1 1 1 1 1 1 1 1 1 1 1 1 I.I.I.I.I.I.I.I.",
"I.I.I.I.I.I.I.I.3 1 1 1 1 1 1 1 1 1 1 1 1 1 1 1 1 1 1 1 1 1 1 1 1 1 1 1 1 1 1 1 1 1 1 1 1 1 1 1 1 1 1 1 1 1 1 1 I.I.I.I.I.I.I.I.",
"I.I.I.I.I.I.I.I.I.3 1 1 1 1 1 1 1 1 1 1 1 1 1 1 1 1 1 1 1 1 1 1 1 1 1 1 1 1 1 1 1 1 1 1 1 1 1 1 1 1 1 1 1 1 1 I.I.I.I.I.I.I.I.I.",
"I.I.I.I.I.I.I.I.I.I.3 1 1 1 1 1 1 1 1 1 1 1 1 1 1 1 1 1 1 1 1 1 1 1 1 1 1 1 1 1 1 1 1 1 1 1 1 1 1 1 1 1 1 1 I.I.I.I.I.I.I.I.I.I.",
"I.I.I.I.I.I.I.I.I.I.I.I.1 1 1 1 1 1 1 1 1 1 1 1 1 1 1 1 1 1 1 1 1 1 1 1 1 1 1 1 1 1 1 1 1 1 1 1 1 1 1 1 I.I.I.I.I.I.I.I.I.I.I.I.",
"I.I.I.I.I.I.I.I.I.I.I.I.I.1 1 1 1 1 1 1 1 1 1 1 1 1 1 1 1 1 1 1 1 1 1 1 1 1 1 1 1 1 1 1 1 1 1 1 1 1 1 I.I.I.I.I.I.I.I.I.I.I.I.I.",
"I.I.I.I.I.I.I.I.I.I.I.I.I.I.1 1 1 1 1 1 1 1 1 1 1 1 1 1 1 1 1 1 1 1 1 1 1 1 1 1 1 1 1 1 1 1 1 1 1 1 I.I.I.I.I.I.I.I.I.I.I.I.I.I.",
"I.I.I.I.I.I.I.I.I.I.I.I.I.I.I.I.1 1 1 1 1 1 1 1 1 1 1 1 1 1 1 1 1 1 1 1 1 1 1 1 1 1 1 1 1 1 1 1 I.I.I.I.I.I.I.I.I.I.I.I.I.I.I.I.",
"I.I.I.I.I.I.I.I.I.I.I.I.I.I.I.I.I.I.1 1 1 1 1 1 1 1 1 1 1 1 1 1 1 1 1 1 1 1 1 1 1 1 1 1 1 1 I.I.I.I.I.I.I.I.I.I.I.I.I.I.I.I.I.I.",
"I.I.I.I.I.I.I.I.I.I.I.I.I.I.I.I.I.I.I.I.1 1 1 1 1 1 1 1 1 1 1 1 1 1 1 1 1 1 1 1 1 1 1 1 I.I.I.I.I.I.I.I.I.I.I.I.I.I.I.I.I.I.I.I.",
"I.I.I.I.I.I.I.I.I.I.I.I.I.I.I.I.I.I.I.I.I.I.I.> 1 1 1 1 1 1 1 1 1 1 1 1 1 1 1 1 3 I.I.I.I.I.I.I.I.I.I.I.I.I.I.I.I.I.I.I.I.I.I.I.",
"I.I.I.I.I.I.I.I.I.I.I.I.I.I.I.I.I.I.I.I.I.I.I.I.I.I.I.> 1 1 > 1 1 > 1 1 > I.I.I.I.I.I.I.I.I.I.I.I.I.I.I.I.I.I.I.I.I.I.I.I.I.I.I."
};
